<svg width="48" height="53" viewBox="0 0 48 53" fill="none" xmlns="http://www.w3.org/2000/svg">
<path fill-rule="evenodd" clip-rule="evenodd" d="M28.2285 4.7115C28.7525 4.89484 29.1773 5.03586 29.1773 5.02176C29.1914 5.00766 29.4463 4.55637 29.7295 4.03457C31.1172 1.53839 33.9351 -0.309057 35.8325 0.0435102C36.8662 0.240948 37.6308 1.45378 37.3335 2.46917C37.1069 3.28713 36.7388 3.6538 35.6343 4.1756C34.0908 4.90894 33.7227 5.2333 33.1279 6.38972L32.604 7.40512L33.2554 8.22307C34.0342 9.16795 34.4731 10 35.0112 11.509C35.3935 12.5667 35.4077 12.7077 35.4077 15.3873V18.1655L35.9033 18.5322C36.4839 18.9552 37.5176 20.0552 37.8574 20.6194C38.084 20.986 38.1406 21.0142 38.707 20.9296C40.208 20.704 41.5249 19.9988 42.0913 19.0963C43.1533 17.4039 43.3798 17.1219 43.8471 16.7411C44.6118 16.1206 45.3906 15.9937 46.0986 16.3462C46.8491 16.727 47.1464 17.2065 47.1464 18.0386C47.1464 19.0257 46.4526 20.3232 45.2065 21.6488C43.9604 22.9886 42.5019 23.9617 41.0009 24.4553C40.0947 24.7514 39.8681 24.8784 39.9248 25.0617C40.1938 25.922 40.4629 27.6284 40.5337 28.8553C40.5761 29.6451 40.6611 30.3643 40.7177 30.4489C40.7885 30.5618 41.7373 30.6464 43.5639 30.7169C46.58 30.8297 47.104 30.9566 47.7128 31.7746C48.081 32.2541 48.0952 33.3541 47.7553 33.89C47.2031 34.7079 47.019 34.7503 43.6772 34.7503H40.5903L40.5195 35.949C40.4629 36.6118 40.3071 37.9657 40.1513 38.967C39.9956 39.9683 39.8965 40.8144 39.9248 40.8567C39.9673 40.8849 40.2646 40.9695 40.5903 41.0401C42.8559 41.5478 44.8525 43.2683 46.226 45.8773C46.9199 47.1888 47.0615 48.0068 46.7499 48.8529C46.5517 49.3606 46.3818 49.5298 45.7729 49.826C44.9516 50.235 44.2861 50.2914 43.6914 49.9811C43.2524 49.7555 42.771 49.0645 42.6152 48.4298C42.4311 47.626 41.8647 46.6952 41.2133 46.1311C40.6186 45.6093 39.0185 44.8337 38.5371 44.8337C38.438 44.8337 38.1548 45.1157 37.9424 45.4542C37.1919 46.5965 35.436 48.5145 34.3174 49.4029C31.6128 51.5606 27.3789 53.0414 24.0513 52.9991L23.9486 52.9988C20.621 53.0411 16.3871 51.5604 13.6826 49.4026C12.5639 48.5142 10.8081 46.5962 10.0576 45.4539C9.84519 45.1154 9.56199 44.8334 9.46287 44.8334C8.98143 44.8334 7.38134 45.609 6.78662 46.1308C6.13526 46.6949 5.56886 47.6257 5.38478 48.4296C5.22902 49.0642 4.74758 49.7552 4.30861 49.9809C3.71389 50.2911 3.04837 50.2347 2.22709 49.8257C1.6182 49.5296 1.44829 49.3603 1.25004 48.8526C0.938523 48.0065 1.08012 47.1885 1.77396 45.877C3.14749 43.268 5.14406 41.5474 7.40966 41.0397C7.73534 40.9692 8.0327 40.8846 8.07518 40.8564C8.1035 40.8141 8.00439 39.9679 7.84862 38.9666C7.69286 37.9654 7.5371 36.6115 7.48046 35.9487L7.40966 34.7499H4.32277C0.981004 34.7499 0.796923 34.7076 0.244681 33.8897C-0.09516 33.3538 -0.0809998 32.2538 0.287161 31.7743C0.896043 30.9563 1.41997 30.8294 4.43605 30.7166C6.2627 30.6461 7.21142 30.5614 7.28222 30.4486C7.33886 30.364 7.42382 29.6448 7.4663 28.855C7.5371 27.6281 7.80614 25.9217 8.07518 25.0614C8.13182 24.8781 7.90527 24.7511 6.99903 24.455C5.49806 23.9614 4.03957 22.9883 2.79349 21.6485C1.54741 20.3229 0.853562 19.0254 0.853562 18.0382C0.853562 17.2062 1.15092 16.7267 1.90141 16.3459C2.60941 15.9934 3.38821 16.1203 4.15285 16.7408C4.62014 17.1216 4.8467 17.4036 5.9087 19.0959C6.4751 19.9985 7.79198 20.7037 9.29295 20.9293C9.85935 21.0139 9.91599 20.9857 10.1426 20.619C10.4824 20.0549 11.5161 18.9549 12.0966 18.5318L12.5922 18.1652V15.3869C12.5922 12.7074 12.6064 12.5664 12.9887 11.5087C13.5268 9.99971 13.9658 9.16765 14.7446 8.22277L15.3959 7.40481L14.872 6.38942C14.2773 5.233 13.9091 4.90863 12.3657 4.17529C11.2612 3.65349 10.893 3.28682 10.6665 2.46887C10.3691 1.45347 11.1338 0.240642 12.1674 0.043204C14.0649 -0.309363 16.8827 1.53809 18.2704 4.03427C18.5536 4.55607 18.8085 5.00735 18.8227 5.02146C18.8227 5.03556 19.2475 4.89453 19.7714 4.7112C20.5257 4.43981 21.3229 4.24192 22.1391 4.11783C22.7688 4.0221 23.4098 3.97029 24.051 3.96253C24.6916 3.97028 25.2298 4.02229 25.8588 4.11783C26.6757 4.2419 27.4736 4.4399 28.2285 4.7115ZM35.875 40.3631C34.5298 44.4952 30.7915 48.0068 26.77 48.9234C26.77 48.9234 25.0545 49.1626 23.9488 49.159C22.8829 49.1557 21.2299 48.9232 21.2299 48.9232C17.2084 48.0065 13.4702 44.4949 12.125 40.3628C11.3886 38.1205 11.3178 37.4436 11.3178 32.4935C11.332 29.5037 11.3886 27.5435 11.5019 27.0217C11.7285 25.8793 12.309 24.6524 13.187 23.4255C14.4189 21.7191 14.9853 21.1973 16.1464 20.7178L17.1943 20.2806L30.8057 20.2809L31.8535 20.7181C33.0146 21.1976 33.5811 21.7194 34.813 23.4258C35.6909 24.6527 36.2715 25.8797 36.498 27.022C36.6113 27.5438 36.668 29.504 36.6821 32.4938C36.6821 37.4439 36.6113 38.1208 35.875 40.3631ZM29.2197 9.83078C30.9048 11.4526 31.6553 13.4129 31.542 15.8949C31.5137 16.4732 31.4995 16.4873 31.0606 16.4591C30.8059 16.4309 27.8618 16.3604 23.9583 16.3463C20.0963 16.3611 17.1922 16.4308 16.9394 16.4587C16.5004 16.487 16.4863 16.4728 16.4579 15.8946C16.3447 13.4126 17.0951 11.4523 18.7802 9.83048C20.4652 8.20867 21.8581 7.69108 23.9488 7.681C26.0781 7.67074 27.5347 8.20897 29.2197 9.83078Z" fill="#30BB5E"/>
</svg>
