<svg width="53" height="53" viewBox="0 0 53 53" fill="none" xmlns="http://www.w3.org/2000/svg">
<path d="M34 45.0003C34 49.4186 30.4183 53.0003 26 53.0003C21.5817 53.0003 18 49.4186 18 45.0003C18 40.582 21.5817 37.0003 26 37.0003C30.4183 37.0003 34 40.582 34 45.0003Z" fill="#0BAAEE"/>
<path fill-rule="evenodd" clip-rule="evenodd" d="M22.6428 0.320326C31.6918 -1.31916 39.3183 3.63853 44.2917 8.28357C44.8695 8.82323 45.4204 9.36685 45.9429 9.9059V4.03695C45.943 2.42298 47.2675 1.11433 48.9005 1.11389H50.0424C51.6757 1.11389 52.9999 2.4227 53 4.03695V21.915C52.9998 22.9911 52.1171 23.8637 51.0282 23.8637H33.6463C32.0132 23.8635 30.6889 22.5547 30.6887 20.9406V19.3754C30.6888 17.7613 32.0131 16.4526 33.6463 16.4523H42.1659C41.3954 15.5895 40.5377 14.6963 39.602 13.8223C35.189 9.70062 29.7001 6.56297 23.8434 7.62417C17.6091 8.75419 13.3255 13.2065 10.4868 17.8197C9.08715 20.0945 8.10361 22.3085 7.47237 23.9579L6.95151 25.5174C6.57948 26.6288 5.37928 27.2454 4.24515 26.9076L1.42423 26.0674C0.375615 25.7549 -0.224033 24.6672 0.0782707 23.6268L0.0801962 23.6182L0.0830845 23.6087C0.266457 23.0202 0.54195 22.1954 0.919735 21.2071C1.67265 19.2376 2.85133 16.5713 4.55902 13.7957C7.94307 8.29588 13.6826 1.94412 22.6428 0.320326Z" fill="#0BAAEE"/>
</svg>
